# xmcd CD database file
#
# Track frame offsets:
#	150
#	33689
#	61606
#	82522
#	108899
#	134615
#	160953
#	183204
#	213477
#
# Disc length: 3156 seconds
#
# Revision: 0
# Processed by: cddbd v1.5.2PL0 Copyright (c) Steve Scherf et al.
# Submitted via: CDex 1.51
#
DISCID=6d0c5209
DTITLE=Matthias Goebel - Q-Train, Brooklyn Bounce
DYEAR=1900
DGENRE=Jazz
TTITLE0=c-aro
TTITLE1=friends?
TTITLE2=this is edgar w.!
TTITLE3=next to me
TTITLE4=Q-Train, Brooklyn Bounce
TTITLE5=beyond my face
TTITLE6=open c
TTITLE7=back then
TTITLE8=good night and good luck
EXTD=
EXTT0=
EXTT1=
EXTT2=
EXTT3=
EXTT4=
EXTT5=
EXTT6=
EXTT7=
EXTT8=
PLAYORDER=
